<svg xmlns="http://www.w3.org/2000/svg" viewBox="0 0 96 96" role="img" aria-label="Trainee avatar">
  <defs>
    <linearGradient id="trainee-bg" x1="14" y1="8" x2="82" y2="88" gradientUnits="userSpaceOnUse">
      <stop stop-color="#2F6BFF"/>
      <stop offset="1" stop-color="#0F172A"/>
    </linearGradient>
  </defs>
  <rect width="96" height="96" rx="48" fill="url(#trainee-bg)"/>
  <circle cx="48" cy="36" r="17" fill="#FFE1C7"/>
  <path d="M30 35c2-15 12-22 26-18 7 2 12 8 12 18-10-4-22-4-38 0z" fill="#1E293B"/>
  <path d="M28 83c3-18 12-27 20-27s17 9 20 27H28z" fill="#DBEAFE"/>
  <path d="M36 66c3 5 7 8 12 8s9-3 12-8" fill="none" stroke="#2563EB" stroke-width="5" stroke-linecap="round"/>
  <circle cx="42" cy="38" r="2.3" fill="#0F172A"/>
  <circle cx="54" cy="38" r="2.3" fill="#0F172A"/>
  <path d="M43 47c3 2 7 2 10 0" fill="none" stroke="#C2410C" stroke-width="3" stroke-linecap="round"/>
</svg>
